<svg xmlns="http://www.w3.org/2000/svg" width="38.77" height="38.771" viewBox="0 0 38.77 38.771">
  <path id="Icon_awesome-phone" data-name="Icon awesome-phone" d="M37.361,1.863,29.486.045A1.829,1.829,0,0,0,27.4,1.1L23.769,9.579a1.813,1.813,0,0,0,.522,2.12l4.589,3.756A28.063,28.063,0,0,1,15.462,28.873l-3.756-4.589a1.815,1.815,0,0,0-2.12-.522L1.106,27.4a1.839,1.839,0,0,0-1.06,2.09l1.817,7.875a1.817,1.817,0,0,0,1.772,1.408A35.131,35.131,0,0,0,38.769,3.635,1.815,1.815,0,0,0,37.361,1.863Z" transform="translate(0.001 0.001)" fill="#232215"/>
</svg>
