<svg id="グループ_259" data-name="グループ 259" xmlns="http://www.w3.org/2000/svg" xmlns:xlink="http://www.w3.org/1999/xlink" width="22.743" height="16.079" viewBox="0 0 22.743 16.079">
  <defs>
    <clipPath id="clip-path">
      <rect id="長方形_277" data-name="長方形 277" width="22.743" height="16.079" fill="none"/>
    </clipPath>
  </defs>
  <g id="グループ_259-2" data-name="グループ 259" clip-path="url(#clip-path)">
    <path id="パス_1598" data-name="パス 1598" d="M84.505,0a8.04,8.04,0,1,0,8.039,8.04A8.049,8.049,0,0,0,84.505,0m0,15.295A7.255,7.255,0,1,1,91.759,8.04a7.264,7.264,0,0,1-7.254,7.255" transform="translate(-73.028)" fill="#1a1311"/>
    <path id="パス_1599" data-name="パス 1599" d="M141.706,101.939a11.39,11.39,0,0,0-2.875-.377c-3.044,0-4.788,1.32-4.788,3.622a3.625,3.625,0,0,0,2.411,3.293,3.017,3.017,0,0,0,1.052.194,4.809,4.809,0,0,0,2.154-.68,9.507,9.507,0,0,1,1.121-.5,3.741,3.741,0,0,1,1.221-.14,2.816,2.816,0,0,0,2.074-.594,2.537,2.537,0,0,0,.63-2.969,4.215,4.215,0,0,0-2.646-1.746c-.119-.036-.238-.07-.354-.1m2.514,2.093a1.986,1.986,0,0,1-.509,2.317A2.326,2.326,0,0,1,142,106.8a4.214,4.214,0,0,0-1.4.17,9.96,9.96,0,0,0-1.186.53,4.332,4.332,0,0,1-1.909.622,2.473,2.473,0,0,1-.864-.161,3.111,3.111,0,0,1-2.053-2.78c0-2.677,2.657-3.076,4.242-3.076a10.825,10.825,0,0,1,2.734.358c.111.03.223.062.338.1a3.757,3.757,0,0,1,2.317,1.47" transform="translate(-128.018 -96.997)" fill="#1a1311"/>
    <path id="パス_1600" data-name="パス 1600" d="M109.015,25.664A6.886,6.886,0,1,0,115.9,32.55a6.894,6.894,0,0,0-6.886-6.886m0,13.323a6.437,6.437,0,1,1,6.436-6.437,6.444,6.444,0,0,1-6.436,6.437" transform="translate(-97.538 -24.51)" fill="#1a1311"/>
    <path id="パス_1601" data-name="パス 1601" d="M2.41,59.4a.267.267,0,0,0-.268.268V61.01a.268.268,0,0,1-.536,0V59.672a.268.268,0,0,0-.536,0V61.01a.268.268,0,0,1-.536,0V59.672a.268.268,0,0,0-.536,0v2.641a1.34,1.34,0,0,0,.8,1.2v6.061h0a.536.536,0,0,0,1.071,0V63.516a1.339,1.339,0,0,0,.8-1.2V59.672A.267.267,0,0,0,2.41,59.4" transform="translate(0 -56.734)" fill="#1a1311"/>
    <path id="パス_1602" data-name="パス 1602" d="M465.865,59.345a1.091,1.091,0,0,0-.157.051,2.625,2.625,0,0,0-1.449,2.358V64.7a.268.268,0,0,0,.268.268h.536v4.551h0a.536.536,0,1,0,1.071,0V59.612a.254.254,0,0,0-.268-.268" transform="translate(-443.39 -56.674)" fill="#1a1311"/>
    <path id="パス_1603" data-name="パス 1603" d="M165.017,125.816c-2.1-.511-5.993-.563-5.993,2.21a2.541,2.541,0,0,0,1.827,2.25c1.045.347,1.945-.28,2.872-.671a3.364,3.364,0,0,1,1.4-.292,2.472,2.472,0,0,0,1.741-.274,1.569,1.569,0,0,0,.467-1.959,3.277,3.277,0,0,0-2.032-1.192c-.1-.026-.191-.05-.284-.073m-5.276,2.592a.227.227,0,1,1,.227-.227.227.227,0,0,1-.227.227m.629.779a.227.227,0,1,1,.227-.227.227.227,0,0,1-.227.227m.629-.779a.227.227,0,1,1,.228-.227.226.226,0,0,1-.228.227m.63.779a.227.227,0,1,1,.227-.227.227.227,0,0,1-.227.227m.629-.779a.227.227,0,1,1,.228-.227.226.226,0,0,1-.228.227m.63.779a.227.227,0,1,1,.227-.227.227.227,0,0,1-.227.227m.629-.779a.227.227,0,1,1,.227-.227.227.227,0,0,1-.227.227" transform="translate(-151.876 -119.9)" fill="#1a1311"/>
  </g>
</svg>
