<svg xmlns="http://www.w3.org/2000/svg" width="37.642" height="37.642" viewBox="0 0 37.642 37.642">
  <path id="Icon_awesome-info-circle" data-name="Icon awesome-info-circle" d="M19.383.563A18.821,18.821,0,1,0,38.2,19.383,18.824,18.824,0,0,0,19.383.563Zm0,8.348A3.187,3.187,0,1,1,16.2,12.1,3.187,3.187,0,0,1,19.383,8.91Zm4.25,19.276a.911.911,0,0,1-.911.911H16.044a.911.911,0,0,1-.911-.911V26.365a.911.911,0,0,1,.911-.911h.911V20.6h-.911a.911.911,0,0,1-.911-.911V17.865a.911.911,0,0,1,.911-.911H20.9a.911.911,0,0,1,.911.911v7.589h.911a.911.911,0,0,1,.911.911Z" transform="translate(-0.563 -0.563)" fill="#232215"/>
</svg>
