<svg xmlns="http://www.w3.org/2000/svg" width="45" height="27" viewBox="0 0 45 27">
  <path id="Icon_awesome-money-bill" data-name="Icon awesome-money-bill" d="M42.75,4.5H2.25A2.25,2.25,0,0,0,0,6.75v22.5A2.25,2.25,0,0,0,2.25,31.5h40.5A2.25,2.25,0,0,0,45,29.25V6.75A2.25,2.25,0,0,0,42.75,4.5ZM3.375,28.125v-4.5a4.5,4.5,0,0,1,4.5,4.5Zm0-15.75v-4.5h4.5A4.5,4.5,0,0,1,3.375,12.375ZM22.5,24.75c-3.107,0-5.625-3.023-5.625-6.75s2.519-6.75,5.625-6.75,5.625,3.022,5.625,6.75S25.606,24.75,22.5,24.75Zm19.125,3.375h-4.5a4.5,4.5,0,0,1,4.5-4.5Zm0-15.75a4.5,4.5,0,0,1-4.5-4.5h4.5Z" transform="translate(0 -4.5)" fill="#232215"/>
</svg>
