<svg id="グループ_137" data-name="グループ 137" xmlns="http://www.w3.org/2000/svg" xmlns:xlink="http://www.w3.org/1999/xlink" width="35.452" height="33.592" viewBox="0 0 35.452 33.592">
  <defs>
    <clipPath id="clip-path">
      <rect id="長方形_236" data-name="長方形 236" width="35.452" height="33.592" fill="#232215"/>
    </clipPath>
  </defs>
  <g id="グループ_164" data-name="グループ 164" clip-path="url(#clip-path)">
    <path id="パス_1532" data-name="パス 1532" d="M29.866,20.716a1.684,1.684,0,0,0,1.609-1.18l3.9-12.374a1.687,1.687,0,0,0-1.609-2.195H10.293c-.013,0-.025,0-.037,0L9.73,1.438A1.686,1.686,0,0,0,8.062,0H1.687a1.687,1.687,0,0,0,0,3.374h4.92l2.35,15.774L6.468,26.254A1.687,1.687,0,0,0,8.062,28.5h.213a2.9,2.9,0,1,0,3.766,0H26.722a2.9,2.9,0,1,0,3.767,0h.445a1.688,1.688,0,0,0,0-3.375H10.439l1.543-4.407Z" transform="translate(0 -0.001)" fill="#232215"/>
  </g>
</svg>
